<svg xmlns="http://www.w3.org/2000/svg" width="40" height="40" viewBox="0 0 40 40">
    <path fill="#FFF" fill-rule="nonzero" d="M35.92 34.738v.089c0 2.812-2.571 5.1-5.727 5.1H10.727C7.571 39.927 5 37.64 5 34.827v-.089L7.227 9.493a.968.968 0 0 1 .961-.878h4.694C12.89 4.417 16.287 1 20.46 1s7.57 3.417 7.578 7.615h4.694c.504 0 .921.378.961.878l2.227 25.245zm-5.727 3.248c2.082 0 3.78-1.394 3.804-3.119L31.851 10.55h-3.813v3.392a.967.967 0 0 1-.962.967.967.967 0 0 1-.96-.967v-3.392H14.804v3.392a.967.967 0 0 1-.962.967.967.967 0 0 1-.96-.967v-3.392H9.068l-2.147 24.31c.025 1.733 1.723 3.127 3.805 3.127h19.466zm-3.4-17.347a.982.982 0 0 1 0 1.378l-11.2 11.264a.961.961 0 0 1-1.362 0 .972.972 0 0 1 0-1.37l11.2-11.272a.958.958 0 0 1 1.361 0zm-2.076 6.72c.882 0 1.723.33 2.347.967.625.636.97 1.466.97 2.36 0 .895-.337 1.733-.97 2.362a3.3 3.3 0 0 1-2.347.975c-.889 0-1.722-.347-2.347-.975a3.355 3.355 0 0 1 0-4.714 3.313 3.313 0 0 1 2.347-.975zm.986 4.327a1.42 1.42 0 0 0 .408-.991c0-.379-.144-.725-.408-.991a1.384 1.384 0 0 0-1.97 0 1.407 1.407 0 0 0 0 1.982 1.384 1.384 0 0 0 1.97 0zm-7.065-6.076a3.286 3.286 0 0 1-2.347.975c-.89 0-1.723-.346-2.347-.975a3.355 3.355 0 0 1 0-4.714 3.313 3.313 0 0 1 4.694 0 3.355 3.355 0 0 1 0 4.714zm-3.333-3.344a1.421 1.421 0 0 0 0 1.983c.265.265.61.41.986.41s.72-.145.985-.41a1.407 1.407 0 0 0 0-1.983 1.37 1.37 0 0 0-.985-.41c-.377 0-.721.144-.986.41zM20.46 2.934c-3.116 0-5.647 2.546-5.655 5.68h11.31c-.008-3.134-2.539-5.68-5.655-5.68z"/>
</svg>
