<svg xmlns="http://www.w3.org/2000/svg" width="120" height="60" viewBox="0 0 120 60">
    <g fill="none" fill-rule="evenodd">
        <g fill="#3898EC">
            <path fill-rule="nonzero" d="M48.731 9.423V6.87c0-2.273 1.838-4.122 4.097-4.122h45.067v26.676a1.37 1.37 0 0 0 1.366 1.374 1.37 1.37 0 0 0 1.366-1.374V2.747h4.097c2.259 0 4.097 1.85 4.097 4.122v21.98a1.37 1.37 0 0 0 1.366 1.373 1.37 1.37 0 0 0 1.365-1.374V6.868c0-3.785-3.064-6.868-6.828-6.868H52.828C49.065 0 46 3.083 46 6.869v2.554a1.366 1.366 0 1 0 2.731 0zm-1.365 28.41c-.755 0-1.366.612-1.366 1.367v.638c0 3.786 3.065 6.869 6.828 6.869h27.314a1.37 1.37 0 0 0 1.365-1.374 1.37 1.37 0 0 0-1.365-1.374H52.828c-2.259 0-4.097-1.849-4.097-4.12v-.64c0-.754-.611-1.365-1.365-1.365zm55.992-12.813a1.37 1.37 0 0 0 1.366 1.374 1.37 1.37 0 0 0 1.366-1.374v-3.333a1.37 1.37 0 0 0-1.366-1.374 1.37 1.37 0 0 0-1.366 1.374v3.333z"/>
            <path d="M63.547 18.824c.802 0 1.453-.633 1.453-1.412 0-.78-.65-1.412-1.453-1.412H49.016c-.803 0-1.453.632-1.453 1.412 0 .78.65 1.412 1.453 1.412h14.53zm0 13.176c.802 0 1.453-.632 1.453-1.412 0-.78-.65-1.412-1.453-1.412H47.078c-.802 0-1.453.633-1.453 1.412 0 .78.65 1.412 1.453 1.412h16.469zm-21.313 0c.803 0 1.453-.632 1.453-1.412 0-.78-.65-1.412-1.453-1.412h-.968c-.803 0-1.453.633-1.453 1.412 0 .78.65 1.412 1.453 1.412h.968zm21.313-6.588C64.349 25.412 65 24.78 65 24c0-.78-.65-1.412-1.453-1.412H35.453C34.651 22.588 34 23.22 34 24c0 .78.65 1.412 1.453 1.412h28.094z"/>
            <path fill-rule="nonzero" d="M112.065 36.966l-3.819-3.837a3.839 3.839 0 0 0-6.38 1.56 3.835 3.835 0 0 0-3.985.915 3.853 3.853 0 0 0-1.054 2 3.857 3.857 0 0 0-4.053 2.258l-2.208-2.218c-1.454-1.458-3.986-1.458-5.438 0A3.85 3.85 0 0 0 84 40.377a3.85 3.85 0 0 0 1.128 2.733l9.42 9.464h-1.954c-3.395 0-6.16 2.777-6.16 6.188 0 .683.552 1.238 1.232 1.238h14.906C109.976 60 116 53.948 116 46.509c0-3.602-1.397-6.99-3.935-9.543zm-9.493 20.559H89.108a3.707 3.707 0 0 1 3.486-2.476h4.928a1.24 1.24 0 0 0 .872-2.114L86.873 41.36a1.384 1.384 0 0 1 0-1.96c.522-.523 1.434-.523 1.954 0l7.825 7.861a1.229 1.229 0 0 0 2.102-.876c0-.317-.121-.634-.36-.876l-3.08-3.095a1.378 1.378 0 0 1-.404-.98c0-.369.143-.718.404-.98.522-.525 1.431-.525 1.954 0l1.848 1.856a1.229 1.229 0 0 0 2.101-.876c0-.317-.12-.634-.36-.876l-1.231-1.238a1.378 1.378 0 0 1-.405-.98 1.381 1.381 0 0 1 2.358-.98l1.232 1.237a1.229 1.229 0 0 0 2.102-.876c0-.317-.12-.634-.36-.874a1.393 1.393 0 0 1 0-1.963 1.377 1.377 0 0 1 1.954 0l3.819 3.837a10.971 10.971 0 0 1 3.21 7.788c0 6.074-4.918 11.016-10.964 11.016z"/>
        </g>
        <g stroke="#B1DBFF" stroke-width="2.4" transform="translate(4 9)">
            <rect width="20.1" height="25.47" x="1.4" y="1.2" fill="#FFF" rx="9.9"/>
            <path fill="#FFF" d="M7.5 27h7a5.5 5.5 0 0 1 5.5 5.5v3.9a1.6 1.6 0 0 1-1.6 1.6H3.6A1.6 1.6 0 0 1 2 36.4v-3.9A5.5 5.5 0 0 1 7.5 27z"/>
            <path stroke-linecap="round" stroke-linejoin="round" d="M20.406 10.658c-1.345 1.253-3.445 1.486-6.3.696-2.854-.789-4.954-2.182-6.3-4.18M11.087 17.636v-1.61M7.188 6.755L2 11.96M13.265 20.903c-.487.655-1.288 1.045-2.192 1.045a2.724 2.724 0 0 1-2.163-1.045"/>
        </g>
    </g>
</svg>
