<svg xmlns="http://www.w3.org/2000/svg" width="120" height="60" viewBox="0 0 120 60">
    <g fill="none" fill-rule="evenodd">
        <g transform="translate(86 4)">
            <ellipse cx="7.819" cy="7.782" stroke="#B1DBFF" stroke-width="2" rx="7.819" ry="7.782"/>
            <ellipse cx="4.976" cy="5.659" fill="#B1DBFF" rx="1.422" ry="1.415"/>
            <path fill="#B1DBFF" fill-rule="nonzero" d="M11.507 10.285A5.206 5.206 0 0 1 7.82 11.81a5.206 5.206 0 0 1-3.688-1.524 1 1 0 1 1 1.413-1.415c.6.597 1.408.939 2.275.939s1.676-.342 2.275-.94a1 1 0 0 1 1.413 1.415z"/>
            <ellipse cx="10.662" cy="5.659" fill="#B1DBFF" rx="1.422" ry="1.415"/>
        </g>
        <path fill="#3898EC" fill-rule="nonzero" stroke="#FFF" d="M25.524 5.636c2.262-1.305 5.157-.538 6.456 1.711l15.698 27.19c1.298 2.25.515 5.14-1.746 6.446l-2.734 1.579c-.213.123-.463.199-.726.21l-.05.001-.04.001-17.942-.259-1.08.624 5.495 9.516c1.299 2.25.515 5.14-1.746 6.446s-5.157.538-6.455-1.71l-5.551-9.615c-5.013 2.012-10.877.103-13.64-4.683-3.03-5.248-1.202-11.995 4.074-15.041l7.915-4.57 8.747-15.667.02-.035.025-.04c.14-.222.33-.399.54-.52l.006-.005 2.734-1.579zM4.197 41.514c2.164 3.749 6.99 5.028 10.76 2.852l1.366-.79-7.849-13.594-1.367.789c-3.768 2.176-5.074 6.995-2.91 10.743zm21.924 12.72l-5.494-9.517-2.734 1.579 5.494 9.516a1.576 1.576 0 0 0 2.152.57 1.576 1.576 0 0 0 .582-2.148zm-4.239-13.867l-7.849-13.595-2.825 1.631 7.85 13.595 2.824-1.63zm17.778-.777L23.595 11.765l-7.168 12.839 8.53 14.775 14.703.211zm5.284-3.474L29.246 8.926a1.576 1.576 0 0 0-2.152-.57l-1.367.789 17.268 29.909 1.367-.79a1.576 1.576 0 0 0 .582-2.148z"/>
        <g transform="translate(47)">
            <ellipse cx="10.826" cy="10.775" fill="#FFF" stroke="#B1DBFF" stroke-width="2" rx="10" ry="9.952"/>
            <path fill="#3898EC" fill-rule="nonzero" d="M15.517 7.293a3.043 3.043 0 0 0-2.19-.923 3.05 3.05 0 0 0-2.191.925l-.306.312-.311-.317a3.058 3.058 0 0 0-4.381-.004 3.155 3.155 0 0 0-.906 2.232c0 .844.325 1.634.91 2.231l4.455 4.538a.32.32 0 0 0 .226.097c.08 0 .163-.031.225-.094l4.464-4.531c.586-.597.908-1.39.908-2.233a3.153 3.153 0 0 0-.903-2.233z"/>
        </g>
        <g transform="translate(67 27)">
            <path stroke="#B1DBFF" stroke-linecap="round" stroke-linejoin="round" stroke-width="2.5" d="M3 11H0M27 18H6M24 25h-8M27 11H7"/>
            <path stroke="#B1DBFF" stroke-linecap="round" stroke-linejoin="round" stroke-width="2" d="M26 4H13"/>
            <ellipse cx="37.174" cy="16.092" fill="#FFF" stroke="#B1DBFF" stroke-width="2" rx="16" ry="15.924"/>
            <path fill="#3898EC" fill-rule="nonzero" d="M30.22 12.913h1.883c.717 0 1.372.268 1.87.71l.603-.39a2.808 2.808 0 0 0 1.291-2.368V9.153c0-1.037.845-1.88 1.883-1.88a3.767 3.767 0 0 1 3.765 3.76v1.88h1.94a2.82 2.82 0 0 1 2.768 3.372l-1.13 5.64a2.83 2.83 0 0 1-2.768 2.267h-4.34a8.464 8.464 0 0 1-2.747-.457l-1.125-.385a2.817 2.817 0 0 1-2.01.842H30.22a.94.94 0 0 1-.941-.94v-9.4c0-.519.421-.94.941-.94zm4.693 8.723l.936.32c.689.236 1.408.356 2.136.356h4.34a.943.943 0 0 0 .923-.756l1.13-5.64a.94.94 0 0 0-.924-1.124h-2.88a.94.94 0 0 1-.942-.94v-2.82c0-1.036-.844-1.88-1.882-1.88v1.713a4.68 4.68 0 0 1-2.153 3.948l-.71.457c.026.15.04.305.04.462v5.64c0 .09-.005.177-.014.264zm-3.752.676h.942a.942.942 0 0 0 .94-.94v-5.64a.942.942 0 0 0-.94-.94h-.942v7.52z"/>
        </g>
    </g>
</svg>
