<svg xmlns="http://www.w3.org/2000/svg" width="638" height="275" viewBox="0 0 638 275">
    <g fill="none" fill-rule="evenodd" stroke="#FFF" opacity=".584" transform="rotate(-3 470.035 121.355)">
        <path stroke-width="4" d="M120.104 60.957l-4.983.07 2.985-4.005-1.594-4.727 4.718 1.597 3.998-2.99-.07 4.992 4.065 2.878-4.761 1.488-1.486 4.77zM539.431 200.557l-4.983.07 2.985-4.005-1.594-4.727 4.718 1.598 3.998-2.992-.07 4.993 4.065 2.878-4.761 1.488-1.486 4.77zM126.608 204.652l7.609 5.545-2.906 8.973h-9.405L119 210.197zM43.448 30.923l8.988-4.384 4.398 9.017-8.988 4.383z"/>
        <path stroke-linecap="square" stroke-width="3" d="M43.616 252.616l9.191-9.856M631 37.363l9.055-4.258M559.145 52.781l9.85-12.608 6.325 4.941-9.85 12.608zM375 34.173l7.482-7.087"/>
        <ellipse cx="162" cy="131.419" stroke-width="4" rx="5" ry="5.016"/>
        <ellipse cx="426.5" cy="5.518" stroke-width="4" rx="5.5" ry="5.518"/>
        <ellipse cx="5.5" cy="152.987" stroke-width="4" rx="5.5" ry="5.518"/>
        <path stroke-width="4" d="M577.395 104.33l8.653 8.187-14.048.844zM87.268 168.145l-6.626 10.398-5.666-9.43zM232.947 32.406l5.053.386-6.023 6.688z"/>
    </g>
</svg>
