<svg xmlns="http://www.w3.org/2000/svg" width="120" height="60" viewBox="0 0 120 60">
    <g fill="none" fill-rule="evenodd">
        <g fill="#B1DBFF">
            <path fill-rule="nonzero" d="M103.219 0a6.81 6.81 0 0 0-.661.033 1.094 1.094 0 0 0-.262-.033H69.312c-3.86 0-7 3.14-7 7v.375a1.094 1.094 0 0 0 2.188 0V7a4.818 4.818 0 0 1 4.813-4.813h28.923a6.754 6.754 0 0 0-1.799 4.594c0 .037.002.074.006.11a1.095 1.095 0 0 0-.005.109v7.474a1.094 1.094 0 0 0 2.187 0V7.875h10.281c.604 0 1.094-.49 1.094-1.094A6.789 6.789 0 0 0 103.219 0zm-4.461 5.688a4.601 4.601 0 0 1 4.46-3.5 4.601 4.601 0 0 1 4.462 3.5h-8.922zm5.118 28.658c0 3.88-2.116 7.276-5.251 9.183v5.69A6.789 6.789 0 0 1 91.844 56H63.406c-3.86 0-7-3.14-7-7 0-.604.49-1.094 1.094-1.094h4.813v-4.403a1.094 1.094 0 0 1 2.187 0v4.403h21.658a1.094 1.094 0 0 1 1.087 1.212c.003.033.005.067.005.1a4.599 4.599 0 0 0 4.594 4.594 4.599 4.599 0 0 0 4.594-4.593V44.39c-.97.296-1.997.456-3.062.456-5.79 0-10.5-4.71-10.5-10.5s4.71-10.5 10.5-10.5c.604 0 1.094.49 1.094 1.093v8.313h8.312c.604 0 1.094.49 1.094 1.094zm-40.47 19.467h23.455a6.76 6.76 0 0 1-1.74-3.72H58.719a4.821 4.821 0 0 0 4.687 3.72zm29.97-11.155c4.213 0 7.704-3.15 8.241-7.219h-8.24c-.605 0-1.095-.49-1.095-1.093v-8.241c-4.068.537-7.218 4.028-7.218 8.24 0 4.584 3.729 8.313 8.312 8.313z"/>
            <path d="M98.094 17C105.21 17 111 22.79 111 29.906c0 .604-.49 1.094-1.094 1.094H98.094C97.49 31 97 30.51 97 29.906V18.094c0-.604.49-1.094 1.094-1.094zm1.094 11.813h9.57c-.514-5.04-4.531-9.057-9.57-9.57v9.57z"/>
            <path fill-rule="nonzero" d="M79.5 14a1.094 1.094 0 0 1 0 2.188h-9.406a1.094 1.094 0 0 1 0-2.188H79.5zm4.367 6.32c.203.204.32.486.32.774 0 .287-.117.57-.32.773-.203.203-.486.32-.773.32-.288 0-.57-.117-.774-.32a1.102 1.102 0 0 1-.32-.773c0-.288.117-.57.32-.774.204-.203.486-.32.774-.32.287 0 .57.117.773.32zM79.5 20a1.094 1.094 0 0 1 0 2.188h-9.406a1.094 1.094 0 0 1 0-2.188H79.5zM73.858 9a1.094 1.094 0 0 1 0 2.188h-3.764a1.094 1.094 0 0 1 0-2.188h3.764z"/>
        </g>
        <g fill="#3898EC" fill-rule="nonzero">
            <path d="M24.832 43.45l5.348-5.691a19.437 19.437 0 0 1-5.187-13.255C24.993 13.719 33.713 5 44.496 5 55.281 5 64 13.72 64 24.504s-8.72 19.503-19.504 19.503a19.432 19.432 0 0 1-12.626-4.63l-5.448 5.798c.573.816.911 1.651.911 2.352a1.92 1.92 0 0 1-.576 1.373L15.803 59.428c-.461.458-.922.572-1.384.572-.922 0-2.075-.572-3.113-1.602l-.807-.801C9.577 56.567 9 55.423 9 54.507c0-.686.346-1.144.577-1.373L20.53 42.607c.997-.989 2.736-.607 4.302.842zm19.664-1.738c9.523 0 17.21-7.686 17.21-17.209 0-9.522-7.687-17.209-17.21-17.209-9.522 0-17.208 7.687-17.208 17.21 0 9.522 7.686 17.208 17.208 17.208zm-30.192 16l10.608-10.3c0-.228-.23-.8-.807-1.372l-.807-.801c-.577-.572-1.153-.801-1.384-.916L11.306 54.622c0 .229.23.8.807 1.373l.807.801c.577.572 1.153.801 1.384.915z"/>
            <path d="M50.305 20.983A3.625 3.625 0 0 1 50 19.511C50 17.52 51.521 16 53.51 16c1.99 0 3.511 1.521 3.511 3.51 0 1.99-1.638 3.511-3.51 3.511a3.614 3.614 0 0 1-1.55-.34l-2.34 3.16c.257.492.4 1.059.4 1.67 0 1.989-1.52 3.51-3.51 3.51-1.99 0-3.511-1.521-3.511-3.51 0-.073.002-.144.006-.215l-3.747-1.605a3.534 3.534 0 0 1-2.748 1.33c-.498 0-.967-.095-1.39-.27l-1.905 2.48c.506.607.805 1.397.805 2.28 0 1.989-1.52 3.51-3.51 3.51-1.99 0-3.511-1.521-3.511-3.51C27 29.52 28.521 28 30.51 28c.226 0 .445.02.657.057l2.224-2.894A3.6 3.6 0 0 1 33 23.51C33 21.52 34.521 20 36.51 20c1.977 0 3.491 1.501 3.511 3.471l3.873 1.66c.635-.702 1.56-1.131 2.617-1.131.49 0 .951.092 1.369.261l2.425-3.278zM30.51 32.681c.702 0 1.17-.468 1.17-1.17 0-.703-.468-1.17-1.17-1.17s-1.17.467-1.17 1.17c0 .702.585 1.17 1.17 1.17zm6-8c.585 0 1.17-.468 1.17-1.17 0-.703-.585-1.17-1.17-1.17-.703 0-1.17.467-1.17 1.17 0 .702.585 1.17 1.17 1.17zm10 4c.585 0 1.17-.468 1.17-1.17s-.468-1.17-1.17-1.17c-.703 0-1.17.468-1.17 1.17s.585 1.17 1.17 1.17zm7-8c.585 0 1.17-.468 1.17-1.17 0-.703-.585-1.17-1.17-1.17-.703 0-1.17.467-1.17 1.17 0 .702.585 1.17 1.17 1.17z"/>
        </g>
    </g>
</svg>
