<svg xmlns="http://www.w3.org/2000/svg" xmlns:xlink="http://www.w3.org/1999/xlink" width="1440" height="624" viewBox="0 0 1440 624">
    <defs>
        <path id="a" d="M0 0h1454v624H0z"/>
        <linearGradient id="c" x1="50%" x2="50%" y1="0%" y2="100%">
            <stop offset="0%" stop-color="#F3FAFF"/>
            <stop offset="100%" stop-color="#E3F2FF"/>
        </linearGradient>
        <path id="d" d="M0 0h83.239v31.065H0z"/>
        <path id="f" d="M0 0h35.021v24.069H0z"/>
        <path id="h" d="M.145.042h43.118v29.092H.145z"/>
        <path id="j" d="M.145.042h43.118v29.092H.145z"/>
        <path id="l" d="M0 0h35.021v24.069H0z"/>
    </defs>
    <g fill="none" fill-rule="evenodd">
        <mask id="b" fill="#fff">
            <use xlink:href="#a"/>
        </mask>
        <use fill="#FFF" xlink:href="#a"/>
        <g mask="url(#b)">
            <path fill="url(#c)" d="M690.302 238.464c158.15 35.253 261.665-19.23 370.932 0 180.58 31.779 227.16 136.33 227.16 257.455 0 121.124-220.623 159.174-384.59 159.174-105.88 0-123.872-49.597-253.758-76.916-90.893-19.118-176.84 29.911-314.86 0C164.445 541.174 36.14 471.12 36.14 332.472s136.583-254.25 299.045-236.09c162.463 18.161 196.968 106.828 355.117 142.082z" opacity=".695" transform="rotate(9 -720.913 -711.735)"/>
            <path fill="url(#c)" d="M1211.202 378.539c131.082 40.535 216.881-22.11 307.447 0 149.674 36.54 192.891 121.815 192.891 261.088 0 139.274-187.473 217.968-323.377 217.968-87.759 0-102.671-57.028-210.327-88.44-75.336-21.984-146.573 34.393-260.972 0C775.347 726.606 669 646.056 669 486.632c0-159.423 113.207-292.347 247.864-271.465 134.657 20.882 163.256 122.835 294.338 163.37z" opacity=".752" transform="matrix(-1 0 0 1 2193.54 203)"/>
            <path fill="#FFF" d="M1382.648 887.458c95.436 0 204.727-117.357 204.727-215.732 0-98.374-127.027-178.122-222.463-178.122-95.435 0-252.867 79.748-252.867 178.122 0 98.375 175.168 215.732 270.603 215.732z" opacity=".817"/>
            <path fill="#FFF" d="M572.612 559.447c101.764 15.698 162.337-31.459 232.248-24.41C920.4 546.686 957.7 621.04 967.128 710.734c9.427 89.692-125.749 132.387-228.412 143.177-66.294 6.968-81.42-28.574-164.87-40.257-58.398-8.176-108.395 33.787-197.141 20.72C266.92 818.21 105.993 776.367 95.202 673.698c-10.791-102.67 85.547-206.976 244.005-196.092 158.458 10.883 131.64 66.144 233.405 81.841z"/>
        </g>
        <g mask="url(#b)">
            <path fill="#D7EDFF" d="M1026.667 627.144v.49H726.054v-.365h-49.857v.06h-17.03v-.06h-11.452v-.257h-38.279v.621h-78.338v-99.745h52.522v-24.936h25.816v47.916h49.73v-63.36h17.031v94.8h7.136v-67.29h12.5v67.29h30.22v-58.433h37.492v27.613h20.828v-76.145h46.656v40.165h24.105V470h46.84v81.488h30.948v-48.126h46.84v48.126h46.905v19.104h11.523V513.36a6.67 6.67 0 0 1-5.015-6.46v-3.32a6.667 6.667 0 0 1 6.667-6.667h.855v-2.074a7.917 7.917 0 0 1 7.917-7.917h.046a7.917 7.917 0 0 1 7.917 7.917v2.074h.02a6.667 6.667 0 0 1 6.666 6.667v3.32a6.67 6.67 0 0 1-5.014 6.46v11.862h33.431v-21.648h30.088v24.146h37.61v19.983h18.388v29.974h45.914V556.89h15.864v30.794h12.524v-84.06h20.039v44.111h23.379v-19.974h33.398v-39.95h15.864v62.479h25.823v20.791h15.894V514.53h35.132v29.94H1440V626.8h-35.133v.832h-53.535v-.832h-6.584v.832H1091.68v-85.76h-33.431v85.76h-20.06v-.489h-11.522zM51.66 512v-17h58.54v50h18.205v26H240v-29.2h11.621V511h21.784v30.8h.109V569h10.054v-20.533h17.595V569h19.879v-36.285h-12.496v-16.652h11.663v-15.82h10.829V486.92h19.993v13.322h10.83v15.82h10.829v16.652h-11.663v49.957h22.296V556.89h17.031v30.794h13.445v-84.06h21.513v44.111h43.92v79.898H323.542v-.3h-22.378v.3h-17.595v-.3h-10.054v.3H240v-.081H117.621v-.219H110.2v25.3H51.66v-.812h-1.805v.051H-.34V552h36v-40h16z"/>
            <path fill="#FFF" d="M810.043 482.65h6.812v10.853h-6.812V482.65zm0 19.203h6.812v10.853h-6.812v-10.853zm-12.773 19.203h6.812v10.854h-6.812v-10.854zm12.773 0h6.812v10.854h-6.812v-10.854zM882.15 504.023h6.811v10.806h-6.812v-10.806zm-12.773 19.118h6.812v10.806h-6.812V523.14zm0 19.118h6.812v10.806h-6.812v-10.806zm12.772 0h6.812v10.806h-6.812v-10.806zm0 19.118h6.812v10.806h-6.812v-10.806zm-12.772 19.118h6.812V591.3h-6.812v-10.805zm12.772 0h6.812V591.3h-6.812v-10.805zM961.378 538.756h6.812v10.793h-6.812v-10.793zm-12.773 19.095h6.812v10.792h-6.812v-10.792zm0 19.094h6.812v10.793h-6.812v-10.793zm12.773 0h6.812v10.793h-6.812v-10.793zM749.508 536.975h6.812v10.934h-6.812v-10.934zm-12.772 19.345h6.812v10.935h-6.812V556.32zM523.086 501.853h6.812v10.853h-6.812v-10.853zm12.773-19.204h6.812v10.854h-6.812V482.65zm0 19.204h6.812v10.853h-6.812v-10.853zm-12.773 19.203h6.812v10.854h-6.812v-10.854zm12.773 0h6.812v10.854h-6.812v-10.854zm-12.773 19.203h6.812v10.854h-6.812v-10.854zm0 19.203h6.812v10.854h-6.812v-10.854zm12.773 0h6.812v10.854h-6.812v-10.854zm0 19.203h6.812v10.854h-6.812v-10.854zM1393.71 520.054h6.811v10.792h-6.812v-10.792zm0 19.094h6.811v10.793h-6.812v-10.793zm12.772 0h6.812v10.793h-6.812v-10.793zm0 19.095h6.812v10.793h-6.812v-10.793zM595.193 542.318h6.231v10.872h-6.231v-10.872zm0 19.235h6.231v10.871h-6.231v-10.871zm0 38.469h6.231v10.871h-6.231v-10.871zM57 534h6.812v10.934H57V534zm12.773 0h6.812v10.934h-6.812V534zm0 19.345h6.812v10.935h-6.812v-10.935zM331.691 571.708h6.812v10.934h-6.812v-10.934zm12.773 0h6.812v10.934h-6.812v-10.934zm0 19.345h6.812v10.934h-6.812v-10.934zM1330.504 555.319h-6.812v10.871h6.812V555.32zm-12.772-19.235h-6.812v10.872h6.812v-10.872zm0 19.235h-6.812v10.871h6.812V555.32zm12.772 19.234h-6.812v10.872h6.812v-10.872zm-12.772 19.235h-6.812v10.871h6.812v-10.871zM496.38 555.319v10.871h-6.812V555.32h6.812zm-12.773-19.235v10.872h-6.812v-10.872h6.812zm0 19.235v10.871h-6.812V555.32h6.812zm12.773 19.234v10.872h-6.812v-10.872h6.812zm-12.773 19.235v10.871h-6.812v-10.871h6.812zM1102.611 551.224h15.938v9.184h-15.938v-9.184zm27.682 0h15.938v9.184h-15.938v-9.184zm-27.682 21.708h15.938v9.184h-15.938v-9.184zm27.682 0h15.938v9.184h-15.938v-9.184zm-27.682 22.543h15.938v9.184h-15.938v-9.184zm27.682 0h15.938v9.184h-15.938v-9.184zM1046.528 513.82h5.341v9.28h-5.34v-9.28zm0 22.78h5.341v9.28h-5.34v-9.28zM1261.958 512.039h5.342v9.28h-5.342v-9.28zm0 22.78h5.342v9.28h-5.342v-9.28zM423 512h6.231v9.28H423V512zm0 22.78h6.231v9.281H423v-9.28zM117 553h6.231v9.28H117V553zm0 22.78h6.231v9.281H117v-9.28z"/>
        </g>
        <g mask="url(#b)">
            <path stroke="#4598E0" stroke-dasharray="3.2,9.600000000000001,3.2,9.600000000000001" stroke-linecap="round" stroke-linejoin="round" stroke-width="2.56" d="M364.6 578.839C441.281 595.613 496.723 604 530.926 604c51.305 0 158.052-40 224.251-40 66.2 0 133.227 40 201.909 40 68.682 0 83.577-20 153.914-20"/>
            <g transform="translate(632.6 535.2)">
                <path fill="#3898EC" d="M4.791 5.974h180.251V92H4.791z"/>
                <path fill="#6AB9FF" d="M0 0h13.31v17.381a6.655 6.655 0 1 1-13.31 0V0zm25.788 0h12.477v17.797a6.239 6.239 0 0 1-12.477 0V0zm24.955 0h12.478v17.797a6.239 6.239 0 0 1-12.478 0V0zM75.7 0h12.478v17.797a6.239 6.239 0 0 1-12.478 0V0zm49.912 0h12.477v17.797a6.239 6.239 0 0 1-12.477 0V0zm-24.956 0h12.478v17.797a6.239 6.239 0 1 1-12.478 0V0zm49.911 0h12.478v17.797a6.239 6.239 0 0 1-12.478 0V0zm24.956 0H188v17.797a6.239 6.239 0 0 1-12.478 0V0z"/>
                <path fill="#FFF" d="M13.31 0h12.478v17.797a6.239 6.239 0 0 1-12.478 0V0zm24.955 0h12.478v17.797a6.239 6.239 0 0 1-12.478 0V0zm24.956 0H75.7v17.797a6.239 6.239 0 0 1-12.478 0V0zm49.912 0h12.478v17.797a6.239 6.239 0 1 1-12.478 0V0zM88.177 0h12.478v17.797a6.239 6.239 0 1 1-12.478 0V0zm49.911 0h12.478v17.797a6.239 6.239 0 0 1-12.478 0V0zm24.956 0h12.478v17.797a6.239 6.239 0 0 1-12.478 0V0z"/>
                <path fill="#EEE" stroke="#FFF" stroke-width="1.797" d="M20.73 37.228h31.744v25.693H20.73z"/>
                <g transform="translate(77.25 38.831)">
                    <mask id="e" fill="#fff">
                        <use xlink:href="#d"/>
                    </mask>
                    <path stroke="#FFF" stroke-width="1.797" d="M-.899-.899h85.036v32.862H-.899z"/>
                    <path fill="#FFF" d="M53.866 0h6.373L18.42 31.065h-6.372z" mask="url(#e)" opacity=".607"/>
                    <path fill="#FFF" d="M38.533 0h10.753L7.468 31.065H-3.286z" mask="url(#e)" opacity=".629"/>
                </g>
                <path fill="#EEE" stroke="#FFF" stroke-width="1.797" d="M20.73 62.921h31.744v25.693H20.73z"/>
                <path stroke="#CCC" stroke-linecap="round" stroke-linejoin="round" stroke-width="1.331" d="M29.115 50.559l7.487-7.46 7.486 7.46"/>
                <rect width="19.965" height="7.459" x="26.619" y="47.243" fill="#FFF" rx="1.331"/>
                <path fill="#9B9B9B" d="M32.311 49.792c0 .02-.037.032-.112.035-.084.002-.14.03-.168.086a3.08 3.08 0 0 0-.127.354c-.1.316-.188.585-.265.806-.133.379-.253.745-.361 1.098-.009.03-.02.045-.033.045-.011 0-.022-.011-.032-.034a6.535 6.535 0 0 1-.088-.243 11.75 11.75 0 0 0-.202-.544c-.057-.143-.113-.29-.168-.443-.155.39-.308.798-.46 1.223-.01.027-.02.041-.034.041-.011 0-.024-.02-.04-.059-.068-.17-.322-.878-.761-2.123a.863.863 0 0 0-.07-.164c-.016-.022-.054-.034-.116-.036-.106-.005-.159-.021-.159-.049 0-.02.018-.031.053-.031a6.412 6.412 0 0 0 .417.014l.138-.005c.065-.004.15-.006.253-.006h.037c.037 0 .056.01.056.032 0 .025-.034.039-.103.041-.137.005-.205.023-.205.056 0 .064.203.666.61 1.804.147-.39.258-.678.33-.862l-.327-.887c-.018-.049-.038-.08-.062-.094a.293.293 0 0 0-.127-.024c-.062-.002-.093-.012-.093-.03 0-.026.023-.039.07-.039.035 0 .078.002.129.007.05.005.139.007.265.007h.252l.364.007a3.759 3.759 0 0 0 .341-.018c.053 0 .08.012.08.035 0 .02-.02.031-.057.031h-.056c-.1 0-.175.014-.225.042-.022.011-.063.094-.123.25l-.132.328-.06.156c.015.046.064.174.146.384.106.268.193.498.261.69l.438-1.327c.088-.27.132-.42.132-.45 0-.044-.039-.066-.116-.066-.108 0-.162-.013-.162-.038 0-.023.022-.035.066-.035.038 0 .067.002.09.004.048.005.092.007.132.007l.265-.004c.066 0 .103.003.11.009.006.006.01.012.01.02zm-1.195.104c0-.042-.069-.062-.206-.062h-.04l-.056.003c-.08.005-.12.02-.12.045 0 .005.066.204.196.6.051-.116.11-.269.18-.458a1.69 1.69 0 0 1 .039-.1l.007-.028zm2.96 1.714l-.006.17a7.024 7.024 0 0 0-.007.298v.114a29.962 29.962 0 0 0-1.513-.014h-.186c-.042 0-.063-.01-.063-.031 0-.014.007-.022.02-.024l.126-.01c.057-.005.092-.018.104-.039a.422.422 0 0 0 .019-.163v-1.946c0-.067-.01-.107-.029-.12-.018-.012-.079-.018-.18-.018-.035 0-.053-.01-.053-.031 0-.021.024-.032.073-.032l.566.004.374-.004h.464c.066 0 .127-.004.182-.013.005.099.015.236.03.412l.013.149a.248.248 0 0 1 .004.045c0 .023-.01.034-.03.034-.024 0-.042-.029-.053-.086-.042-.208-.11-.34-.206-.395-.07-.042-.256-.063-.556-.063h-.272v1.015h.08c.247 0 .398-.02.452-.059.054-.039.091-.153.111-.343.004-.048.017-.072.036-.072.025 0 .037.02.037.062 0 .042-.002.103-.007.184a6.38 6.38 0 0 0 .01.751c0 .03-.012.045-.036.045-.016 0-.026-.01-.032-.03a2.12 2.12 0 0 1-.028-.192c-.018-.136-.072-.22-.162-.252a1.322 1.322 0 0 0-.312-.021h-.149v1.163c.486 0 .771-.01.855-.03.146-.035.229-.183.248-.444.005-.058.02-.087.043-.087.023 0 .034.025.034.073zm1.905.288c0 .06-.003.159-.01.297h-.036l-.096-.006a1.92 1.92 0 0 0-.173-.007l-1.377-.01c-.038 0-.057-.011-.057-.032 0-.016.03-.027.09-.031.084-.005.134-.015.15-.03.017-.015.025-.058.025-.13v-1.946c0-.085-.008-.135-.025-.149-.016-.013-.075-.02-.177-.02-.042 0-.063-.013-.063-.038 0-.021.013-.032.04-.032h.03a5.691 5.691 0 0 0 .55.006c.057-.004.104-.006.142-.006h.036c.04 0 .06.012.06.035 0 .014-.006.023-.018.026a.766.766 0 0 1-.114.009c-.064.002-.103.013-.115.033a.494.494 0 0 0-.018.181v2.044c.06.002.143.003.249.003.258 0 .44-.014.546-.042.106-.027.178-.08.215-.155a.8.8 0 0 0 .067-.309c.002-.03.015-.045.04-.045.028 0 .041.018.039.052l-.003.087v.031a.358.358 0 0 1 .003.049v.135zm2.044-.5l-.007.094a5.898 5.898 0 0 0-.013.388l.006.085c.005.043.007.094.007.154v.031c0 .03-.009.045-.027.045-.017 0-.033-.017-.046-.052a.358.358 0 0 0-.093-.148.82.82 0 0 1-.573.218c-.324 0-.593-.119-.806-.355-.213-.237-.32-.535-.32-.895 0-.363.098-.659.293-.889a.948.948 0 0 1 .757-.344c.113 0 .203.01.27.03.067.019.15.059.25.119.049.03.085.045.11.045.02 0 .038-.019.056-.056.028-.064.052-.097.07-.097.017 0 .026.01.026.028 0 .01-.002.024-.007.045-.024.11-.036.319-.036.623 0 .044-.004.07-.01.077a.035.035 0 0 1-.027.01c-.022 0-.036-.022-.043-.066a1.21 1.21 0 0 0-.122-.412c-.108-.185-.278-.277-.51-.277a.522.522 0 0 0-.424.187c-.188.224-.282.552-.282.984 0 .385.077.684.232.896a.632.632 0 0 0 .537.277.585.585 0 0 0 .533-.329 1.44 1.44 0 0 0 .122-.384c.01-.055.024-.083.043-.083.023 0 .034.017.034.052zm2.394-.415c0 .344-.099.635-.296.873a.911.911 0 0 1-.727.357.975.975 0 0 1-.769-.362 1.32 1.32 0 0 1-.311-.892c0-.36.1-.655.3-.885a.97.97 0 0 1 .767-.344c.293 0 .54.12.738.36.199.24.298.538.298.893zm-.37.018c0-.423-.084-.752-.25-.987a.5.5 0 0 0-.433-.222.512.512 0 0 0-.41.17c-.18.208-.269.546-.269 1.014 0 .372.062.66.187.866.125.206.3.308.525.308a.51.51 0 0 0 .474-.29c.117-.215.175-.501.175-.86zm2.983 1.142c0 .024-.023.035-.07.035h-.036l-.168-.003a7.174 7.174 0 0 0-.421 0h-.202c-.046 0-.07-.01-.07-.032 0-.023.032-.034.096-.034.113 0 .181-.013.206-.038.01-.012.016-.09.016-.232v-1.794l-.036.121c-.088.28-.217.7-.384 1.26l-.156.551c-.03.109-.053.163-.066.163-.016 0-.032-.028-.05-.083a51.86 51.86 0 0 0-.543-1.572l-.133-.37c.003.043.004.103.004.18v1.125c0 .422.003.636.01.64.015.03.068.045.159.045.072 0 .109.01.109.032 0 .023-.023.034-.07.034a.844.844 0 0 1-.08-.003 1.124 1.124 0 0 0-.082-.004l-.38.01c-.04 0-.06-.01-.06-.03 0-.024.062-.036.188-.039.053 0 .084-.009.093-.027a.648.648 0 0 0 .013-.18v-1.66c0-.19-.002-.295-.006-.31a.093.093 0 0 0-.057-.067.765.765 0 0 0-.185-.027c-.035-.003-.053-.013-.053-.032 0-.025.032-.038.096-.038a.91.91 0 0 1 .056.004h.173c.13 0 .221-.001.274-.004a192.961 192.961 0 0 1 .623 1.756c.042-.15.085-.298.13-.443l.35-1.146c.02-.067.038-.123.053-.167l.497-.003c.073 0 .115.003.126.01a.034.034 0 0 1 .017.031c0 .024-.02.035-.057.035a.738.738 0 0 0-.126.007c-.053.01-.089.028-.109.055-.01.017-.016.152-.016.406v1.61c0 .092.008.147.026.163.029.02.1.03.215.03h.02c.044 0 .066.012.066.035zm1.888-.533l-.006.17a7.024 7.024 0 0 0-.007.298v.114a29.962 29.962 0 0 0-1.514-.014h-.185c-.042 0-.063-.01-.063-.031 0-.014.007-.022.02-.024l.126-.01c.057-.005.092-.018.104-.039a.422.422 0 0 0 .018-.163v-1.946c0-.067-.009-.107-.028-.12-.019-.012-.079-.018-.18-.018-.036 0-.053-.01-.053-.031 0-.021.024-.032.073-.032l.566.004.374-.004h.464c.066 0 .127-.004.182-.013.004.099.014.236.03.412l.013.149a.248.248 0 0 1 .003.045c0 .023-.01.034-.03.034-.024 0-.041-.029-.052-.086-.042-.208-.11-.34-.206-.395-.07-.042-.256-.063-.556-.063h-.272v1.015h.08c.247 0 .398-.02.452-.059.054-.039.09-.153.11-.343.005-.048.017-.072.037-.072.025 0 .037.02.037.062 0 .042-.003.103-.007.184a6.38 6.38 0 0 0 .01.751c0 .03-.012.045-.036.045-.016 0-.026-.01-.032-.03a2.12 2.12 0 0 1-.028-.192c-.018-.136-.072-.22-.162-.252a1.322 1.322 0 0 0-.312-.021h-.149v1.163c.486 0 .77-.01.855-.03.146-.035.228-.183.248-.444.005-.058.019-.087.043-.087.022 0 .033.025.033.073z"/>
            </g>
            <path fill="#3898EC" d="M1054.565 555.663h81.101v71.28h-81.101z"/>
            <path fill="#EEE" stroke="#FFF" stroke-width="1.382" d="M1064.472 585.52h19.814v19.897h-19.814z"/>
            <g transform="translate(1092.811 585.749)">
                <mask id="g" fill="#fff">
                    <use xlink:href="#f"/>
                </mask>
                <path stroke="#FFF" stroke-width="1.382" d="M-.691-.691h36.403V24.76H-.691z"/>
                <g mask="url(#g)">
                    <g transform="translate(14.746 3.703)">
                        <ellipse cx="7.373" cy="7.406" fill="#FFF" stroke="#CDCDCD" stroke-width=".5" rx="7.373" ry="7.406"/>
                        <ellipse cx="7.373" cy="7.406" fill="#D2D2D2" rx="6.451" ry="6.48"/>
                        <path fill="#FFF" d="M5.97 8.761c.05.137.074.265.072.386a.846.846 0 0 1-.068.33.765.765 0 0 1-.188.26.84.84 0 0 1-.281.17.998.998 0 0 1-.468.056.939.939 0 0 1-.414-.15l.108-.28a.728.728 0 0 0 .332.13c.12.016.232.004.336-.033a.491.491 0 0 0 .295-.275c.058-.133.053-.29-.013-.473a.613.613 0 0 0-.31-.35.974.974 0 0 0-.216-.08 2.125 2.125 0 0 0-.239-.04 2.044 2.044 0 0 1-.288-.051 1.02 1.02 0 0 1-.26-.104.86.86 0 0 1-.223-.188.957.957 0 0 1-.169-.3 1.04 1.04 0 0 1-.07-.396.815.815 0 0 1 .079-.33.769.769 0 0 1 .19-.249.998.998 0 0 1 .672-.222.719.719 0 0 1 .361.122l-.108.281a.542.542 0 0 0-.27-.106.637.637 0 0 0-.275.038.55.55 0 0 0-.167.098.458.458 0 0 0-.121.16.557.557 0 0 0-.048.22.736.736 0 0 0 .05.272.636.636 0 0 0 .121.212c.05.054.106.098.168.13a.81.81 0 0 0 .204.075c.073.016.147.028.222.037.095.011.192.028.29.052a1.2 1.2 0 0 1 .281.104.857.857 0 0 1 .416.494zm2.15.11l-.467-.702-.944.344.085.84-.307.112-.342-3.363.412-.15 1.878 2.804-.316.115zm-1.667-2.57l-.017.006.227 1.946.858-.312-1.068-1.64zm2.363 2.316l-1.12-3.08.303-.11 1.018 2.797.874-.318.103.283-1.178.428zm1.546-.562l-1.12-3.08 1.233-.449.099.27-.94.342.394 1.083.88-.32.093.256-.88.32.436 1.196.983-.357.1.274-1.278.465z"/>
                    </g>
                </g>
                <path fill="#FFF" d="M22.663 0h2.681L7.75 24.069H5.069z" mask="url(#g)" opacity=".607"/>
                <path fill="#FFF" d="M16.212 0h4.524L3.142 24.069h-4.524z" mask="url(#g)" opacity=".629"/>
            </g>
            <path fill="#EEE" stroke="#FFF" stroke-width="1.382" d="M1064.472 605.886h19.814v19.897h-19.814z"/>
            <path fill="#6AB9FF" d="M1051.8 555.2h9.6v14.486a4.8 4.8 0 1 1-9.6 0V555.2zm19.2 0h9.6v14.486a4.8 4.8 0 1 1-9.6 0V555.2zm19.2 0h9.6v14.486a4.8 4.8 0 1 1-9.6 0V555.2zm19.2 0h9.6v14.486a4.8 4.8 0 1 1-9.6 0V555.2zm19.2 0h9.6v14.486a4.8 4.8 0 1 1-9.6 0V555.2z"/>
            <path fill="#FFF" d="M1061.4 555.2h9.6v14.486a4.8 4.8 0 1 1-9.6 0V555.2zM1080.6 555.2h9.6v14.486a4.8 4.8 0 1 1-9.6 0V555.2zM1099.8 555.2h9.6v14.486a4.8 4.8 0 1 1-9.6 0V555.2zM1119 555.2h9.6v14.486a4.8 4.8 0 1 1-9.6 0V555.2z"/>
            <g>
                <g transform="translate(435.967 553.114)">
                    <path fill="#3898EC" d="M3.784 69.48h79.769V.453H3.784z"/>
                    <rect width="85.221" height="6.467" x="1.223" y="67.157" fill="#3898EC" rx="1.843"/>
                    <path fill="#87C7FF" d="M3.798 4.203h7.525l-3.3 21.545H.1L3.798 4.203zm15.05 0h7.526l-2.509 21.545h-7.921l2.905-21.545zm15.05 0h6.866l-1.056 21.545h-7.921l2.112-21.545zm49.641 0l3.697 21.545h-7.921L76.014 4.203h7.525zm-22.576 0h7.526l2.904 21.545h-7.921L60.963 4.203zm-14.39 0h6.866l2.112 21.545h-7.922L46.573 4.203z"/>
                    <path fill="#FFF" d="M11.323 4.203l-3.3 21.545h7.921l2.905-21.545zM26.374 4.203l-2.509 21.545h7.922l2.112-21.545zM68.489 4.203l2.904 21.545h7.921l-3.3-21.545zM53.438 4.203l2.113 21.545h7.92L60.964 4.203zM45.913 4.203H40.764l-1.056 21.545H47.629L46.573 4.203z"/>
                    <path fill="#2184DA" d="M4.062 29.689c-2.187 0-3.96-1.764-3.96-3.941h7.92c0 2.177-1.772 3.94-3.96 3.94zm15.843 0c-2.188 0-3.961-1.764-3.961-3.941h7.922c0 2.177-1.774 3.94-3.961 3.94zm15.842 0c-2.187 0-3.96-1.764-3.96-3.941h7.92c0 2.177-1.772 3.94-3.96 3.94zm15.843 0c-2.187 0-3.96-1.764-3.96-3.941h7.92c0 2.177-1.772 3.94-3.96 3.94zm15.843 0c-2.188 0-3.961-1.764-3.961-3.941h7.921c0 2.177-1.773 3.94-3.96 3.94zm15.842 0c-2.187 0-3.96-1.764-3.96-3.941h7.92c0 2.177-1.773 3.94-3.96 3.94z"/>
                    <path fill="#EFEFEF" d="M11.983 29.689c2.188 0 3.961-1.764 3.961-3.941H8.023c0 2.177 1.773 3.94 3.96 3.94M27.826 29.689c2.187 0 3.96-1.764 3.96-3.941h-7.92c0 2.177 1.773 3.94 3.96 3.94M43.669 29.689c2.187 0 3.96-1.764 3.96-3.941h-7.921c0 2.177 1.773 3.94 3.96 3.94M59.511 29.689c2.188 0 3.96-1.764 3.96-3.941h-7.92c0 2.177 1.773 3.94 3.96 3.94M75.354 29.689c2.187 0 3.96-1.764 3.96-3.941h-7.92c0 2.177 1.772 3.94 3.96 3.94"/>
                    <path fill="#6AB9FF" d="M3.784 2.409h79.769V.369H3.784z"/>
                </g>
                <g transform="translate(445.619 587.088)">
                    <mask id="i" fill="#fff">
                        <use xlink:href="#h"/>
                    </mask>
                    <path fill="#EEE" d="M.145 29.134h43.118V.042H.145z" mask="url(#i)"/>
                    <path fill="#FFF" d="M5.752 33.61l-6.486-3.223 16.68-34.09L22.43-.481zM-3.641 30.146l-2.355-1.17 16.68-34.09 2.354 1.17z" mask="url(#i)"/>
                </g>
                <path fill="#FFF" d="M447.198 615.75h41.382v-26.864h-41.382v26.864zm-2.079 2.067h45.54v-30.998h-45.54v30.998z"/>
                <path fill="#EEE" d="M496.307 622.513h18.13V586.09h-18.13z"/>
                <path fill="#FFF" d="M496.307 606.888v-11.351l6.034-9.447h5.895l.972.602-12.901 20.196zm0 8.389v-5.27l15.277-23.917h2.853v.805l-18.13 28.382z"/>
                <path fill="#FFF" d="M497.91 620.085h14.93v-32.231h-14.93v32.231zm-1.872 2.428h18.674v-37.088h-18.674v37.088z"/>
            </g>
            <g>
                <g transform="translate(919.967 553.114)">
                    <path fill="#3898EC" d="M3.784 69.48h79.769V.453H3.784z"/>
                    <rect width="85.221" height="6.467" x="1.223" y="67.157" fill="#3898EC" rx="1.843"/>
                    <path fill="#87C7FF" d="M3.798 4.203h7.525l-3.3 21.545H.1L3.798 4.203zm15.05 0h7.526l-2.509 21.545h-7.921l2.905-21.545zm15.05 0h6.866l-1.056 21.545h-7.921l2.112-21.545zm49.641 0l3.697 21.545h-7.921L76.014 4.203h7.525zm-22.576 0h7.526l2.904 21.545h-7.921L60.963 4.203zm-14.39 0h6.866l2.112 21.545h-7.922L46.573 4.203z"/>
                    <path fill="#FFF" d="M11.323 4.203l-3.3 21.545h7.921l2.905-21.545zM26.374 4.203l-2.509 21.545h7.922l2.112-21.545zM68.489 4.203l2.904 21.545h7.921l-3.3-21.545zM53.438 4.203l2.113 21.545h7.92L60.964 4.203zM45.913 4.203H40.764l-1.056 21.545H47.629L46.573 4.203z"/>
                    <path fill="#2184DA" d="M4.062 29.689c-2.187 0-3.96-1.764-3.96-3.941h7.92c0 2.177-1.772 3.94-3.96 3.94zm15.843 0c-2.188 0-3.961-1.764-3.961-3.941h7.922c0 2.177-1.774 3.94-3.961 3.94zm15.842 0c-2.187 0-3.96-1.764-3.96-3.941h7.92c0 2.177-1.772 3.94-3.96 3.94zm15.843 0c-2.187 0-3.96-1.764-3.96-3.941h7.92c0 2.177-1.772 3.94-3.96 3.94zm15.843 0c-2.188 0-3.961-1.764-3.961-3.941h7.921c0 2.177-1.773 3.94-3.96 3.94zm15.842 0c-2.187 0-3.96-1.764-3.96-3.941h7.92c0 2.177-1.773 3.94-3.96 3.94z"/>
                    <path fill="#EFEFEF" d="M11.983 29.689c2.188 0 3.961-1.764 3.961-3.941H8.023c0 2.177 1.773 3.94 3.96 3.94M27.826 29.689c2.187 0 3.96-1.764 3.96-3.941h-7.92c0 2.177 1.773 3.94 3.96 3.94M43.669 29.689c2.187 0 3.96-1.764 3.96-3.941h-7.921c0 2.177 1.773 3.94 3.96 3.94M59.511 29.689c2.188 0 3.96-1.764 3.96-3.941h-7.92c0 2.177 1.773 3.94 3.96 3.94M75.354 29.689c2.187 0 3.96-1.764 3.96-3.941h-7.92c0 2.177 1.772 3.94 3.96 3.94"/>
                    <path fill="#6AB9FF" d="M3.784 2.409h79.769V.369H3.784z"/>
                </g>
                <g transform="translate(929.619 587.088)">
                    <mask id="k" fill="#fff">
                        <use xlink:href="#j"/>
                    </mask>
                    <path fill="#EEE" d="M.145 29.134h43.118V.042H.145z" mask="url(#k)"/>
                    <path fill="#FFF" d="M5.752 33.61l-6.486-3.223 16.68-34.09L22.43-.481zM-3.641 30.146l-2.355-1.17 16.68-34.09 2.354 1.17z" mask="url(#k)"/>
                </g>
                <path fill="#FFF" d="M931.198 615.75h41.382v-26.864h-41.382v26.864zm-2.079 2.067h45.54v-30.998h-45.54v30.998z"/>
                <path fill="#EEE" d="M980.307 622.513h18.13V586.09h-18.13z"/>
                <path fill="#FFF" d="M980.307 606.888v-11.351l6.034-9.447h5.895l.972.602-12.901 20.196zm0 8.389v-5.27l15.277-23.917h2.853v.805l-18.13 28.382z"/>
                <path fill="#FFF" d="M981.91 620.085h14.93v-32.231h-14.93v32.231zm-1.872 2.428h18.674v-37.088h-18.674v37.088z"/>
            </g>
            <g>
                <path fill="#3898EC" d="M304.965 553.263h81.101v71.28h-81.101z"/>
                <path fill="#EEE" stroke="#FFF" stroke-width="1.382" d="M314.872 583.12h19.814v19.897h-19.814z"/>
                <g transform="translate(343.211 583.349)">
                    <mask id="m" fill="#fff">
                        <use xlink:href="#l"/>
                    </mask>
                    <path stroke="#FFF" stroke-width="1.382" d="M-.691-.691h36.403V24.76H-.691z"/>
                    <g mask="url(#m)">
                        <g transform="translate(14.746 3.703)">
                            <ellipse cx="7.373" cy="7.406" fill="#FFF" stroke="#CDCDCD" stroke-width=".5" rx="7.373" ry="7.406"/>
                            <ellipse cx="7.373" cy="7.406" fill="#D2D2D2" rx="6.451" ry="6.48"/>
                            <path fill="#FFF" d="M5.97 8.761c.05.137.074.265.072.386a.846.846 0 0 1-.068.33.765.765 0 0 1-.188.26.84.84 0 0 1-.281.17.998.998 0 0 1-.468.056.939.939 0 0 1-.414-.15l.108-.28a.728.728 0 0 0 .332.13c.12.016.232.004.336-.033a.491.491 0 0 0 .295-.275c.058-.133.053-.29-.013-.473a.613.613 0 0 0-.31-.35.974.974 0 0 0-.216-.08 2.125 2.125 0 0 0-.239-.04 2.044 2.044 0 0 1-.288-.051 1.02 1.02 0 0 1-.26-.104.86.86 0 0 1-.223-.188.957.957 0 0 1-.169-.3 1.04 1.04 0 0 1-.07-.396.815.815 0 0 1 .079-.33.769.769 0 0 1 .19-.249.998.998 0 0 1 .672-.222.719.719 0 0 1 .361.122l-.108.281a.542.542 0 0 0-.27-.106.637.637 0 0 0-.275.038.55.55 0 0 0-.167.098.458.458 0 0 0-.121.16.557.557 0 0 0-.048.22.736.736 0 0 0 .05.272.636.636 0 0 0 .121.212c.05.054.106.098.168.13a.81.81 0 0 0 .204.075c.073.016.147.028.222.037.095.011.192.028.29.052a1.2 1.2 0 0 1 .281.104.857.857 0 0 1 .416.494zm2.15.11l-.467-.702-.944.344.085.84-.307.112-.342-3.363.412-.15 1.878 2.804-.316.115zm-1.667-2.57l-.017.006.227 1.946.858-.312-1.068-1.64zm2.363 2.316l-1.12-3.08.303-.11 1.018 2.797.874-.318.103.283-1.178.428zm1.546-.562l-1.12-3.08 1.233-.449.099.27-.94.342.394 1.083.88-.32.093.256-.88.32.436 1.196.983-.357.1.274-1.278.465z"/>
                        </g>
                    </g>
                    <path fill="#FFF" d="M22.663 0h2.681L7.75 24.069H5.069z" mask="url(#m)" opacity=".607"/>
                    <path fill="#FFF" d="M16.212 0h4.524L3.142 24.069h-4.524z" mask="url(#m)" opacity=".629"/>
                </g>
                <path fill="#EEE" stroke="#FFF" stroke-width="1.382" d="M314.872 603.486h19.814v19.897h-19.814z"/>
                <path fill="#6AB9FF" d="M302.2 552.8h9.6v14.486a4.8 4.8 0 1 1-9.6 0V552.8zm19.2 0h9.6v14.486a4.8 4.8 0 1 1-9.6 0V552.8zm19.2 0h9.6v14.486a4.8 4.8 0 1 1-9.6 0V552.8zm19.2 0h9.6v14.486a4.8 4.8 0 1 1-9.6 0V552.8zm19.2 0h9.6v14.486a4.8 4.8 0 1 1-9.6 0V552.8z"/>
                <path fill="#FFF" d="M311.8 552.8h9.6v14.486a4.8 4.8 0 1 1-9.6 0V552.8zM331 552.8h9.6v14.486a4.8 4.8 0 1 1-9.6 0V552.8zM350.2 552.8h9.6v14.486a4.8 4.8 0 1 1-9.6 0V552.8zM369.4 552.8h9.6v14.486a4.8 4.8 0 1 1-9.6 0V552.8z"/>
            </g>
            <g>
                <path fill="#3898EC" d="M439.8 517.6h79.768v36H439.8z"/>
                <path fill="#2184DA" d="M439.8 512h79.768v7.2H439.8z"/>
                <g fill="#EEE" stroke="#FFF" stroke-width="1.382">
                    <path d="M452.709 526.509h19.814v19.897h-19.814zM486.309 526.509h19.814v19.897h-19.814z"/>
                </g>
            </g>
        </g>
    </g>
</svg>
