<svg xmlns="http://www.w3.org/2000/svg" width="60" height="60" viewBox="0 0 60 60">
    <g fill="none" fill-rule="nonzero">
        <path fill="#B1DBFF" d="M31.308 54.424v2.874h10.114c.72 0 1.296.578 1.309 1.299 0 .721-.576 1.298-1.295 1.298H18.604c-.72 0-1.296-.577-1.296-1.298 0-.721.576-1.299 1.296-1.299h10.114v-2.874H4.996a2.98 2.98 0 0 1-2.97-2.977v-7.082c0-.721.576-1.298 1.295-1.298.144 0 .262.026.393.065h10.219c.575-3.41 3.546-6.006 7.104-6.006.72 0 1.296.577 1.296 1.298 0 .722-.576 1.299-1.296 1.299-2.12 0-3.912 1.442-4.448 3.41h5.181a8.275 8.275 0 0 1 6.267-6.794s1.034-.262 2.591-.17c3.768.34 6.83 3.252 7.38 6.976h5.155a4.61 4.61 0 0 0-4.449-3.41c-.72 0-1.295-.576-1.295-1.298 0-.72.575-1.298 1.295-1.298 3.559 0 6.529 2.597 7.105 6.006h5.534c.72 0 1.296.577 1.296 1.299 0 .721-.576 1.298-1.296 1.298H4.617v5.718c0 .21.17.38.38.38H55.03c.21 0 .38-.17.38-.38V16.93a.38.38 0 0 0-.38-.38h-14c-.72 0-1.295-.577-1.295-1.298 0-.722.575-1.299 1.295-1.299h14A2.98 2.98 0 0 1 58 16.93v34.517a2.98 2.98 0 0 1-2.97 2.977H31.308zm-1.413-15.698a5.617 5.617 0 0 0-5.482 4.406h10.965c-.563-2.518-2.8-4.406-5.483-4.406zM20.344 15.252c0-.722-.576-1.299-1.295-1.299H4.996a2.98 2.98 0 0 0-2.97 2.977v22.648c0 .722.576 1.299 1.295 1.299.72 0 1.296-.577 1.296-1.299V16.93c0-.21.17-.38.38-.38h14.052c.72 0 1.295-.577 1.295-1.298z"/>
        <path fill="#3898EC" d="M34.828 35.015a1.3 1.3 0 0 1-1.295-1.299v-2.714a1.268 1.268 0 0 1-.628-1.102c0-.721.575-1.298 1.295-1.298h3.48v-1.285c0-.394-.104-.774-.314-1.102l-2.002-3.16a4.456 4.456 0 0 1-.693-2.4V10.28c0-.944-.34-1.862-.955-2.583L29.92 3.292l-3.794 4.42a3.986 3.986 0 0 0-.942 2.57v10.294a4.49 4.49 0 0 1-.798 2.57l-2.133 3.082a2.13 2.13 0 0 0-.366 1.18v1.207h3.663c.72 0 1.296.577 1.296 1.298 0 .722-.576 1.299-1.296 1.299l-.013.013v2.504c0 .722-.575 1.299-1.295 1.299s-1.295-.577-1.295-1.299v-2.504l-2.355-.013c-.72 0-1.296-.577-1.296-1.299v-2.505c0-.957.288-1.875.838-2.662l2.132-3.082c.223-.314.34-.681.34-1.075V10.281c0-1.56.563-3.068 1.57-4.262L28.915.46c.249-.289.602-.459.981-.459.38 0 .733.157.982.446l4.788 5.56a6.543 6.543 0 0 1 1.597 4.289v10.373c0 .354.091.708.288 1.01l2.001 3.16c.471.748.72 1.613.72 2.492v2.583c0 .722-.576 1.299-1.295 1.299h-2.853v2.504c0 .722-.575 1.299-1.295 1.299zm-6.646-4.48c0-.704.646-1.267 1.454-1.267.808 0 1.455.563 1.455 1.267v5.514c0 .729-.705 1.305-1.543 1.266-.778-.038-1.366-.64-1.366-1.317v-5.463z"/>
    </g>
</svg>
