<svg xmlns="http://www.w3.org/2000/svg" width="40" height="40" viewBox="0 0 40 40">
    <path fill="#FFF" fill-rule="nonzero" d="M39.92 25.546a1.116 1.116 0 0 0-1.408-.707l-17.687 5.85a4.748 4.748 0 0 0-4.05-2.251h-.197a2.66 2.66 0 0 0-.255.016L9.303 7.347c-.091-.28-.297-.51-.56-.64L1.607 3.123a1.108 1.108 0 1 0-.996 1.98l6.733 3.377 6.872 20.704a4.87 4.87 0 0 0-.955.797 4.737 4.737 0 0 0-1.259 3.418 4.754 4.754 0 0 0 4.766 4.568h.197a4.768 4.768 0 0 0 4.568-4.954c0-.066-.008-.14-.016-.206l17.695-5.85c.584-.196.897-.83.708-1.412zM16.875 35.742a2.54 2.54 0 0 1-2.65-2.432 2.518 2.518 0 0 1 .674-1.824 2.503 2.503 0 0 1 1.77-.814h.107a2.54 2.54 0 0 1 2.543 2.44 2.553 2.553 0 0 1-2.444 2.63zm1.925-8.364l-5.613-16.9a1.113 1.113 0 0 1 .708-1.405l8.543-2.827 8.544-2.834a1.125 1.125 0 0 1 1.407.706l5.605 16.909c.09.28.066.583-.066.846a1.104 1.104 0 0 1-.642.559L20.2 28.084c-.116.041-.23.058-.346.058-.46 0-.897-.296-1.054-.764zm3.284-18.683l-6.436 2.136 4.914 14.797 14.98-4.954-4.914-14.806-6.437 2.128 1.358 4.1a1.113 1.113 0 0 1-1.053 1.462c-.46 0-.897-.295-1.054-.764l-1.358-4.1z"/>
</svg>
