<svg xmlns="http://www.w3.org/2000/svg" width="60" height="60" viewBox="0 0 60 60">
    <g fill="none" fill-rule="nonzero">
        <path fill="#B1DBFF" d="M28.663.24a3.261 3.261 0 0 1 2.452 0c.789.319 1.415.933 1.74 1.706l.789 1.866c1.89-.27 3.804-.27 5.694 0l.788-1.866C40.802.338 42.68-.424 44.32.24l3.066 1.253c.789.32 1.414.933 1.74 1.707a3.088 3.088 0 0 1 0 2.406l-.789 1.866a19.283 19.283 0 0 1 4.018 3.954l1.902-.773a3.261 3.261 0 0 1 2.453 0c.788.319 1.414.933 1.74 1.706l1.263 3.008a3.088 3.088 0 0 1 0 2.407 3.174 3.174 0 0 1-1.74 1.707l-1.901.773a18.996 18.996 0 0 1 0 5.587l1.902.773c1.64.663 2.415 2.505 1.74 4.114l-1.277 3.008c-.676 1.608-2.553 2.37-4.193 1.707l-1.902-.774a19.343 19.343 0 0 1-4.03 3.954l.789 1.866a3.088 3.088 0 0 1 0 2.407 3.174 3.174 0 0 1-1.74 1.706l-3.066 1.24a3.26 3.26 0 0 1-1.227.246 3.31 3.31 0 0 1-1.226-.246 3.174 3.174 0 0 1-1.74-1.706l-1.164-2.763a1.202 1.202 0 0 1 .676-1.584 1.242 1.242 0 0 1 1.615.663l1.164 2.763a.745.745 0 0 0 .964.393l3.065-1.24a.732.732 0 0 0 .4-.393.706.706 0 0 0 0-.553l-1.163-2.762a1.21 1.21 0 0 1 .463-1.474 16.805 16.805 0 0 0 4.768-4.678 1.25 1.25 0 0 1 1.502-.442l2.816 1.142c.375.147.814-.025.964-.393l1.276-3.008a.723.723 0 0 0-.4-.946l-2.816-1.142a1.226 1.226 0 0 1-.739-1.362c.439-2.186.451-4.42 0-6.606a1.205 1.205 0 0 1 .739-1.363l2.816-1.142a.732.732 0 0 0 .4-.393.706.706 0 0 0 0-.552l-1.264-3.009a.745.745 0 0 0-.964-.393l-2.815 1.142a1.259 1.259 0 0 1-1.502-.454 16.805 16.805 0 0 0-4.768-4.678 1.2 1.2 0 0 1-.45-1.473l1.163-2.763a.706.706 0 0 0 0-.553.732.732 0 0 0-.4-.393L43.38 2.474c-.375-.147-.813.025-.963.393L41.253 5.63a1.26 1.26 0 0 1-1.39.724 17.498 17.498 0 0 0-6.733 0 1.224 1.224 0 0 1-1.389-.724l-1.164-2.763a.745.745 0 0 0-.964-.393l-3.066 1.24a.727.727 0 0 0-.4.946l1.164 2.762a1.21 1.21 0 0 1-.463 1.474 16.805 16.805 0 0 0-4.768 4.678 1.25 1.25 0 0 1-1.502.442l-2.816-1.142a.745.745 0 0 0-.964.393l-1.276 3.008a.723.723 0 0 0 .4.945l2.816 1.142c.638.258.939.958.676 1.584-.263.626-.976.921-1.615.663l-2.815-1.142c-1.64-.663-2.416-2.504-1.74-4.113l1.276-3.008a3.174 3.174 0 0 1 1.74-1.707 3.261 3.261 0 0 1 2.453 0l1.902.774a19.343 19.343 0 0 1 4.03-3.954l-.788-1.866c-.676-1.596.1-3.45 1.74-4.113L28.662.24zm18.25 22.729c.037 5.515-4.407 10.037-9.932 10.074h-.012a1.23 1.23 0 0 1-1.23-1.217 1.217 1.217 0 0 1 1.217-1.242c4.16-.037 7.511-3.441 7.486-7.603-.024-4.136-3.401-7.49-7.535-7.49h-.05a7.459 7.459 0 0 0-5.313 2.248 7.525 7.525 0 0 0-2.173 5.354 1.217 1.217 0 0 1-1.216 1.242h-.013a1.23 1.23 0 0 1-1.229-1.217 9.968 9.968 0 0 1 2.88-7.093 9.972 9.972 0 0 1 7.052-2.982h.074c5.475 0 9.957 4.435 9.994 9.926z"/>
        <path fill="#3898EC" d="M16.64 59.652h2.373a2.635 2.635 0 0 0 2.632-2.632v-1.217c1.18-.32 2.312-.787 3.37-1.402l.86.86a2.625 2.625 0 0 0 1.857.776c.701 0 1.365-.271 1.857-.775l1.673-1.673a2.625 2.625 0 0 0 .775-1.857c0-.7-.271-1.365-.775-1.857l-.861-.86a13.946 13.946 0 0 0 1.402-3.37h1.217a2.635 2.635 0 0 0 2.632-2.632v-2.374a2.635 2.635 0 0 0-2.632-2.631h-1.217a13.946 13.946 0 0 0-1.402-3.37l.86-.861a2.625 2.625 0 0 0 .776-1.857c0-.701-.271-1.365-.775-1.857l-1.673-1.673a2.625 2.625 0 0 0-1.857-.774c-.7 0-1.365.27-1.857.774l-.86.861a13.946 13.946 0 0 0-3.37-1.402v-1.217A2.635 2.635 0 0 0 19.013 24h-2.374a2.635 2.635 0 0 0-2.631 2.632v1.217c-1.181.32-2.313.787-3.37 1.402l-.861-.86a2.625 2.625 0 0 0-1.857-.775c-.701 0-1.365.27-1.857.774L4.39 30.063a2.635 2.635 0 0 0 0 3.714l.861.86a13.946 13.946 0 0 0-1.402 3.37H2.632A2.635 2.635 0 0 0 0 40.64v2.374a2.635 2.635 0 0 0 2.632 2.632h1.217c.32 1.18.787 2.312 1.402 3.37l-.86.86a2.635 2.635 0 0 0 0 3.714l1.672 1.673a2.625 2.625 0 0 0 1.857.775c.701 0 1.365-.271 1.857-.775l.86-.861a13.946 13.946 0 0 0 3.37 1.402v1.217c.013 1.452 1.193 2.632 2.632 2.632zm-5.498-7.797a1.21 1.21 0 0 0-1.537.148L8.068 53.54a.189.189 0 0 1-.136.062.189.189 0 0 1-.135-.062l-1.673-1.673a.193.193 0 0 1 0-.27l1.538-1.537c.406-.406.48-1.058.147-1.538a11.86 11.86 0 0 1-1.795-4.329 1.224 1.224 0 0 0-1.193-.983H2.644a.194.194 0 0 1-.197-.197v-2.374c0-.11.086-.196.197-.196h2.177c.578 0 1.082-.406 1.193-.984a11.86 11.86 0 0 1 1.795-4.33c.32-.479.259-1.13-.147-1.536l-1.538-1.538a.193.193 0 0 1 0-.27l1.673-1.673a.189.189 0 0 1 .135-.061c.037 0 .086.012.136.061l1.537 1.562c.406.406 1.057.48 1.537.148a11.86 11.86 0 0 1 4.329-1.796c.566-.11.984-.615.984-1.193v-2.177c0-.11.086-.196.197-.196h2.373c.11 0 .197.086.197.196v2.177c0 .578.406 1.082.984 1.193 1.55.308 3.013.91 4.329 1.796.48.32 1.131.258 1.537-.148l1.537-1.537a.189.189 0 0 1 .135-.062c.037 0 .087.013.136.062l1.672 1.672c.05.05.062.099.062.136a.189.189 0 0 1-.062.135l-1.537 1.537a1.211 1.211 0 0 0-.148 1.537 11.86 11.86 0 0 1 1.796 4.33c.11.565.615.983 1.193.983h2.177c.11 0 .196.086.196.197v2.373c0 .111-.086.197-.196.197h-2.177c-.578 0-1.082.406-1.193.984a11.86 11.86 0 0 1-1.796 4.329c-.32.48-.258 1.131.148 1.537l1.537 1.538c.05.049.062.098.062.135a.189.189 0 0 1-.062.135l-1.672 1.673a.189.189 0 0 1-.136.061.189.189 0 0 1-.135-.061l-1.537-1.538a1.211 1.211 0 0 0-1.537-.147 11.86 11.86 0 0 1-4.33 1.795c-.565.111-.983.615-.983 1.193v2.177c0 .11-.086.197-.197.197h-2.373a.194.194 0 0 1-.197-.197v-2.177c0-.578-.406-1.082-.984-1.193a12.35 12.35 0 0 1-4.329-1.82zm14.075-10.029c0-4.073-3.321-7.391-7.397-7.391-4.076 0-7.385 3.318-7.385 7.391s3.321 7.391 7.397 7.391c4.077 0 7.385-3.318 7.385-7.39zm-12.291 0a4.91 4.91 0 0 1 4.906-4.902 4.91 4.91 0 0 1 4.907 4.902 4.91 4.91 0 0 1-4.907 4.902c-2.705 0-4.906-2.212-4.906-4.902z"/>
    </g>
</svg>
